<svg width="54" height="66" viewBox="0 0 54 66" fill="none" xmlns="http://www.w3.org/2000/svg">
<path d="M26.8 0C15.705 0 6.6414 9.06356 6.6414 20.1586V25.9405C2.9691 25.9405 0 28.9096 0 32.5819V58.9131C0 62.5854 2.9691 65.5545 6.6414 65.5545H46.9586C50.6309 65.5545 53.6 62.5854 53.6 58.9131V32.5819C53.6 28.9096 50.6309 25.9405 46.9586 25.9405V20.1586C46.9586 9.06356 37.895 0 26.8 0ZM39.9265 25.9405H13.6735V20.1586C13.6735 12.9703 19.5335 7.03207 26.8 7.03207C34.0665 7.03207 39.9265 12.9703 39.9265 20.1586V25.9405Z" fill="#7F7F7F"/>
</svg>
