<svg width="30" height="66" viewBox="0 0 30 66" fill="none" xmlns="http://www.w3.org/2000/svg">
<path d="M15.0001 50.3566C15.373 50.1786 16.5919 49.3557 17.3367 48.6249C18.6479 47.3426 20.8461 44.4982 20.8461 39.8634V35.7557H26.8808V44.559C26.8808 51.3686 21.8433 58.1729 15.0001 61.8288C8.15806 58.1729 3.1207 51.3686 3.1207 44.559V35.7557H9.15428V39.8634C9.15428 43.6046 10.5011 46.1039 11.6299 47.5407C12.154 48.2076 12.7404 48.7952 13.3755 49.2869C13.7833 49.6027 14.7716 50.2512 15.0001 50.3632V50.3566ZM12.2735 28.3569H17.7261V39.8634C17.7261 43.5223 16.0094 45.6329 14.9774 46.5728C13.9577 45.6779 12.2735 43.6324 12.2735 39.8634V28.3569ZM10.9929 7.44985V6.18333H18.7715V7.44985C18.7715 9.59591 17.0276 11.3409 14.8832 11.3409C12.7381 11.3409 10.9929 9.59591 10.9929 7.44985V7.44985ZM28.4411 32.6353H20.8461V26.797C20.8461 25.9353 20.1487 25.2373 19.2866 25.2373H17.6012V16.1253C21.2884 14.9672 23.9724 11.5173 23.9724 7.44985V3.58372C23.9724 2.14782 22.808 0.983157 21.3722 0.983157H8.39329C6.95758 0.983157 5.79311 2.14782 5.79311 3.58372V7.44985C5.79311 11.603 8.59099 15.1108 12.3999 16.1941V25.2373H10.7144C9.85225 25.2373 9.15428 25.9353 9.15428 26.797V32.6353H1.56026C0.698533 32.6353 0 33.3337 0 34.1958V44.559C0 48.5285 1.24269 52.5049 3.59284 56.0565C6.12024 59.8784 9.83237 62.991 14.3265 65.054C14.5312 65.1487 14.7514 65.196 14.9731 65.1967C14.9791 65.1967 14.9858 65.1967 14.9933 65.1967C14.9977 65.1967 15.0023 65.1967 15.0074 65.1967C15.0142 65.1967 15.0213 65.1967 15.0269 65.1967C15.2492 65.196 15.4694 65.1485 15.6746 65.054C20.1691 62.991 23.88 59.8784 26.4079 56.0565C28.7579 52.5049 30 48.5285 30 44.559V34.1958C30 33.3337 29.3022 32.6353 28.4411 32.6353Z" fill="#05c887"/>
</svg>
